<?xml version="1.0" encoding="UTF-8" standalone="no"?>
<svg width="38px" height="38px" viewBox="0 0 38 38" version="1.1" xmlns="http://www.w3.org/2000/svg" xmlns:xlink="http://www.w3.org/1999/xlink" xmlns:sketch="http://www.bohemiancoding.com/sketch/ns">
    <!-- Generator: Sketch 3.3.3 (12072) - http://www.bohemiancoding.com/sketch -->
    <title>facebook</title>
    <desc>Created with Sketch.</desc>
    <defs></defs>
    <g id="Page-1" stroke="none" stroke-width="1" fill="none" fill-rule="evenodd" sketch:type="MSPage">
        <g id="7" sketch:type="MSArtboardGroup" transform="translate(-1115.000000, -2412.000000)">
            <g id="Rectangle-17-+-FINE-COFFEE-KITS-BY--+-©2015-ALL-RIGHTS-RES" sketch:type="MSLayerGroup" transform="translate(0.000000, 2358.000000)">
                <g id="fix-logotype-ca370dd275120fd14c7b21973ba767e97d259ff38bdf49bcab94e2e9a0aa22df-copy-+-©2015-ALL-RIGHTS-RES-+-FINE-COFFEE-KITS-BY-" transform="translate(68.000000, 53.000000)" sketch:type="MSShapeGroup">
                    <g id="FOLLOW-ON-+-Shape-+-Rectangle-47-Copy-+-FOLLOW-ON-+-Shape-+-Rectangle-47-Copy-2-+-FOLLOW-ON-+-Shape-+-Rectangle-47-Copy-3" transform="translate(883.000000, 1.000000)">
                        <g id="FOLLOW-ON-+-Shape-+-Rectangle-47-Copy-2" transform="translate(140.000000, 0.000000)">
                            <g id="Shape-+-Rectangle-47-Copy" transform="translate(24.000000, 0.000000)">
                                <path d="M21.672,12.077 C21.672,10.975 22.602,11.175 22.602,11.175 L25.282,11.175 L25.282,7.029 C25.282,7.029 25.508,7 21.108,7 C16.708,7 16.51,11.006 16.51,11.006 L16.51,14.672 L14,14.672 L14,19.156 L16.51,19.156 L16.51,31 L21.672,31 L21.672,19.156 L24.971,19.156 L25.616,14.672 L21.673,14.672 L21.673,12.077 L21.672,12.077 Z" id="Shape" fill="#FFFFFF"></path>
                                <rect id="Rectangle-47-Copy" stroke-opacity="0.297469429" stroke="#FFFFFF" x="0" y="0" width="38" height="38" rx="10"></rect>
                            </g>
                        </g>
                    </g>
                </g>
            </g>
        </g>
    </g>
</svg>