<?xml version="1.0" encoding="UTF-8" standalone="no"?>
<svg width="38px" height="38px" viewBox="0 0 38 38" version="1.1" xmlns="http://www.w3.org/2000/svg" xmlns:xlink="http://www.w3.org/1999/xlink" xmlns:sketch="http://www.bohemiancoding.com/sketch/ns">
    <!-- Generator: Sketch 3.3.3 (12072) - http://www.bohemiancoding.com/sketch -->
    <title>instagram</title>
    <desc>Created with Sketch.</desc>
    <defs></defs>
    <g id="Page-1" stroke="none" stroke-width="1" fill="none" fill-rule="evenodd" sketch:type="MSPage">
        <g id="7" sketch:type="MSArtboardGroup" transform="translate(-1261.000000, -2412.000000)">
            <g id="Rectangle-17-+-FINE-COFFEE-KITS-BY--+-©2015-ALL-RIGHTS-RES" sketch:type="MSLayerGroup" transform="translate(0.000000, 2358.000000)">
                <g id="fix-logotype-ca370dd275120fd14c7b21973ba767e97d259ff38bdf49bcab94e2e9a0aa22df-copy-+-©2015-ALL-RIGHTS-RES-+-FINE-COFFEE-KITS-BY-" transform="translate(68.000000, 53.000000)" sketch:type="MSShapeGroup">
                    <g id="FOLLOW-ON-+-Shape-+-Rectangle-47-Copy-+-FOLLOW-ON-+-Shape-+-Rectangle-47-Copy-2-+-FOLLOW-ON-+-Shape-+-Rectangle-47-Copy-3" transform="translate(883.000000, 1.000000)">
                        <g id="FOLLOW-ON-+-Shape-+-Rectangle-47-Copy-3" transform="translate(282.000000, 0.000000)">
                            <g id="Shape-+-Rectangle-47-Copy" transform="translate(28.000000, 0.000000)">
                                <path d="M27.801,7 L10.2,7 C8.44,7 7,8.439 7,10.199 L7,27.8 C7,29.56 8.44,31 10.2,31 L27.801,31 C29.561,31 31,29.56 31,27.8 L31,10.199 C31,8.439 29.561,7 27.801,7 L27.801,7 Z M23.496,11 C23.496,10.296 24.072,9.719 24.776,9.719 L27.068,9.719 C27.773,9.719 28.349,10.296 28.349,11 L28.349,13.292 C28.349,13.996 27.773,14.573 27.068,14.573 L24.776,14.573 C24.072,14.573 23.496,13.996 23.496,13.292 L23.496,11 L23.496,11 Z M14.437,18.535 C14.451,18.405 14.471,18.277 14.497,18.148 C14.5,18.128 14.502,18.108 14.506,18.088 C14.564,17.797 14.652,17.519 14.761,17.251 C14.763,17.248 14.765,17.243 14.766,17.238 C15.456,15.579 17.092,14.413 19.001,14.413 C20.911,14.413 22.547,15.579 23.237,17.238 C23.239,17.243 23.24,17.248 23.241,17.251 C23.352,17.519 23.438,17.797 23.497,18.088 C23.501,18.108 23.503,18.128 23.507,18.148 C23.53,18.277 23.552,18.405 23.566,18.535 C23.581,18.687 23.589,18.844 23.589,18.999 C23.589,21.533 21.535,23.586 19.001,23.586 C16.468,23.586 14.415,21.533 14.415,18.999 C14.414,18.844 14.422,18.688 14.437,18.535 L14.437,18.535 Z M28.362,26.947 C28.362,27.65 27.785,28.225 27.081,28.225 L10.922,28.225 C10.218,28.225 9.642,27.65 9.642,26.947 L9.642,17.239 L11.691,17.239 C11.556,17.804 11.482,18.394 11.482,18.999 C11.482,23.152 14.849,26.52 19.002,26.52 C23.156,26.52 26.523,23.153 26.523,18.999 C26.523,18.395 26.45,17.805 26.313,17.239 L28.364,17.239 L28.364,26.947 L28.362,26.947 Z" id="Shape" fill="#FFFFFF"></path>
                                <rect id="Rectangle-47-Copy" stroke-opacity="0.297469429" stroke="#FFFFFF" x="0" y="0" width="38" height="38" rx="10"></rect>
                            </g>
                        </g>
                    </g>
                </g>
            </g>
        </g>
    </g>
</svg>