<?xml version="1.0" encoding="UTF-8" standalone="no"?>
<svg width="38px" height="38px" viewBox="0 0 38 38" version="1.1" xmlns="http://www.w3.org/2000/svg" xmlns:xlink="http://www.w3.org/1999/xlink" xmlns:sketch="http://www.bohemiancoding.com/sketch/ns">
    <!-- Generator: Sketch 3.3.3 (12072) - http://www.bohemiancoding.com/sketch -->
    <title>twitter</title>
    <desc>Created with Sketch.</desc>
    <defs></defs>
    <g id="Page-1" stroke="none" stroke-width="1" fill="none" fill-rule="evenodd" sketch:type="MSPage">
        <g id="7" sketch:type="MSArtboardGroup" transform="translate(-972.000000, -2412.000000)">
            <g id="Rectangle-17-+-FINE-COFFEE-KITS-BY--+-©2015-ALL-RIGHTS-RES" sketch:type="MSLayerGroup" transform="translate(0.000000, 2358.000000)">
                <g id="fix-logotype-ca370dd275120fd14c7b21973ba767e97d259ff38bdf49bcab94e2e9a0aa22df-copy-+-©2015-ALL-RIGHTS-RES-+-FINE-COFFEE-KITS-BY-" transform="translate(68.000000, 53.000000)" sketch:type="MSShapeGroup">
                    <g id="FOLLOW-ON-+-Shape-+-Rectangle-47-Copy-+-FOLLOW-ON-+-Shape-+-Rectangle-47-Copy-2-+-FOLLOW-ON-+-Shape-+-Rectangle-47-Copy-3" transform="translate(883.000000, 1.000000)">
                        <g id="FOLLOW-ON-+-Shape-+-Rectangle-47-Copy">
                            <g id="Shape-+-Rectangle-47-Copy" transform="translate(21.000000, 0.000000)">
                                <path d="M29.544,14.857 C29.553,15.068 29.559,15.281 29.559,15.494 C29.559,22.002 24.606,29.504 15.548,29.504 C12.768,29.504 10.18,28.689 8,27.292 C8.386,27.338 8.777,27.36 9.176,27.36 C11.483,27.36 13.606,26.573 15.29,25.252 C13.136,25.214 11.316,23.79 10.69,21.833 C10.991,21.892 11.298,21.922 11.617,21.922 C12.066,21.922 12.501,21.862 12.914,21.749 C10.662,21.297 8.964,19.308 8.964,16.921 C8.964,16.9 8.964,16.88 8.965,16.859 C9.629,17.229 10.388,17.451 11.195,17.476 C9.873,16.592 9.004,15.084 9.004,13.377 C9.004,12.474 9.247,11.628 9.672,10.901 C12.1,13.88 15.729,15.839 19.82,16.045 C19.736,15.686 19.693,15.309 19.693,14.923 C19.693,12.204 21.897,10 24.617,10 C26.033,10 27.312,10.599 28.211,11.556 C29.332,11.334 30.387,10.923 31.338,10.361 C30.971,11.51 30.19,12.475 29.173,13.084 C30.169,12.966 31.117,12.701 32,12.31 C31.34,13.296 30.506,14.163 29.544,14.857 L29.544,14.857 Z" id="Shape" fill="#FFFFFF"></path>
                                <rect id="Rectangle-47-Copy" stroke-opacity="0.297469429" stroke="#FFFFFF" x="0" y="0" width="38" height="38" rx="10"></rect>
                            </g>
                        </g>
                    </g>
                </g>
            </g>
        </g>
    </g>
</svg>